HIERARCHY
ROOT Hips
{
  OFFSET 52.6912 84.0934 6.05162
  CHANNELS 6 Xposition Yposition Zposition Zrotation Xrotation Yrotation
  JOINT spine
  {
    OFFSET 0 5.95438 0.342407
    CHANNELS 3 Zrotation Xrotation Yrotation
    JOINT spine1
    {
      OFFSET 0 8.85602 0
      CHANNELS 3 Zrotation Xrotation Yrotation
      JOINT spine2
      {
        OFFSET 0 8.48567 0
        CHANNELS 3 Zrotation Xrotation Yrotation
        JOINT Neck
        {
          OFFSET 0 21.7863 1.0387
          CHANNELS 3 Zrotation Xrotation Yrotation
          JOINT Head
          {
            OFFSET 0 6.5822 0
            CHANNELS 3 Zrotation Xrotation Yrotation
            End Site
            {
              OFFSET 0 15.9326 -5.25436
            }
          }
        }
        JOINT RightShoulder
        {
          OFFSET -3.57307 9.16386 -0.497525
          CHANNELS 3 Zrotation Xrotation Yrotation
          JOINT RightArm
          {
            OFFSET 0 12.0192 0
            CHANNELS 3 Zrotation Xrotation Yrotation
            JOINT RightArmRoll
            {
              OFFSET 0 6.06755 0
              CHANNELS 3 Zrotation Xrotation Yrotation
              JOINT RightForeArm
              {
                OFFSET 0 17.6726 0
                CHANNELS 3 Zrotation Xrotation Yrotation
                JOINT RightForeArmRoll
                {
                  OFFSET 0 6.80872 0
                  CHANNELS 3 Zrotation Xrotation Yrotation
                  JOINT RightHand
                  {
                    OFFSET 0 13.6636 0
                    CHANNELS 3 Zrotation Xrotation Yrotation
                    End Site
                    {
                      OFFSET 0 0 0
                    }
                  }
                }
              }
            }
          }
        }
        JOINT LeftShoulder
        {
          OFFSET 3.57307 9.16386 -0.497525
          CHANNELS 3 Zrotation Xrotation Yrotation
          JOINT LeftArm
          {
            OFFSET 0 12.0192 0
            CHANNELS 3 Zrotation Xrotation Yrotation
            JOINT LeftArmRoll
            {
              OFFSET 0 6.06754 0
              CHANNELS 3 Zrotation Xrotation Yrotation
              JOINT LeftForeArm
              {
                OFFSET 0 17.6726 0
                CHANNELS 3 Zrotation Xrotation Yrotation
                JOINT LeftForeArmRoll
                {
                  OFFSET 0 6.80872 0
                  CHANNELS 3 Zrotation Xrotation Yrotation
                  JOINT LeftHand
                  {
                    OFFSET 0 13.6636 0
                    CHANNELS 3 Zrotation Xrotation Yrotation
                    End Site
                    {
                      OFFSET 0 0 0
                    }
                  }
                }
              }
            }
          }
        }
      }
    }
  }
  JOINT RightUpLeg
  {
    OFFSET -5.27774 -0.967797 -0.811858
    CHANNELS 3 Zrotation Xrotation Yrotation
    JOINT RightUpLegRoll
    {
      OFFSET 0 16.0214 0
      CHANNELS 3 Zrotation Xrotation Yrotation
      JOINT RightLeg
      {
        OFFSET 0 -19.8401 0
        CHANNELS 3 Zrotation Xrotation Yrotation
        JOINT RightLegRoll
        {
          OFFSET 0 19.905 0
          CHANNELS 3 Zrotation Xrotation Yrotation
          JOINT RightFoot
          {
            OFFSET 0 16.5675 0
            CHANNELS 3 Zrotation Xrotation Yrotation
            JOINT RightToeBase
            {
              OFFSET 0 13.8496 0
              CHANNELS 3 Zrotation Xrotation Yrotation
              End Site
              {
                OFFSET 0.00587034 6.70727 -0.773117
              }
            }
          }
        }
      }
    }
  }
  JOINT LeftUpLeg
  {
    OFFSET 5.27774 -0.967797 -0.811858
    CHANNELS 3 Zrotation Xrotation Yrotation
    JOINT LeftUpLegRoll
    {
      OFFSET 0 16.0215 0
      CHANNELS 3 Zrotation Xrotation Yrotation
      JOINT LeftLeg
      {
        OFFSET 0 19.84 0
        CHANNELS 3 Zrotation Xrotation Yrotation
        JOINT LeftLegRoll
        {
          OFFSET 0 20.089 0
          CHANNELS 3 Zrotation Xrotation Yrotation
          JOINT LeftFoot
          {
            OFFSET 0 16.3835 0
            CHANNELS 3 Zrotation Xrotation Yrotation
            JOINT LeftToeBase
            {
              OFFSET 0 13.8496 0
              CHANNELS 3 Zrotation Xrotation Yrotation
              End Site
              {
                OFFSET -0.0263083 6.70727 -0.773117
              }
            }
          }
        }
      }
    }
  }
}
MOTION
Frames: 4
Frame Time: 0.00208333
53.9102 83.5935 6.91233 -5.35015 -0.703998 97.2548 -1.06335 -3.40475 -0.295115 -2.13704 -2.80269 -0.519682 -2.12979 -1.1583 -0.485038 -18.038 -35.3281 -16.7469 9.27415 21.013 -15.8088 72.9434 -6.48054 -4.60122 40.0098 47.5347 49.2917 -6.36111e-015 -6.36111e-015 1.59028e-015 -177.528 67.9815 173.032 -2.80921e-006 7.10889e-006 -3 8.03003 -4.95096 0.697573 -63.2855 -9.98428 6.19797 -107.569 25.5185 10.0569 3.67558e-006 1.44309e-005 1.29135e-005 3.639 -0.035342 1.99299 -2.99074e-006 -1.06443e-005 3.01161 -8.03009 -4.95139 -0.697598 -178.182 5.75327 -1.02548 180 7.01553e-015 178.951 -178.56 11.5501 179.319 4.06695e-007 2.86343e-007 0.328048 -20.42 69.9872 21.3395 8.13649 25.2326 -3.48773 179.236 20.5273 4.3264 4.54188e-006 -4.6773e-006 -0.844188 1.0928 -17.5301 0.820328 6.74829e-008 -6.68015e-007 -0.213102 18.8882 68.2599 -19.7845 -8.13648 25.2326 3.48773 
53.9138 83.6045 6.92987 -5.42668 -0.743927 97.324 -1.06995 -3.39728 -0.295238 -2.15009 -2.78772 -0.518847 -2.14286 -1.14335 -0.483859 -18.6796 -35.6493 -17.1135 9.786 21.2878 -16.1098 72.503 -6.37549 -4.53546 39.7094 47.9491 49.4441 0 0 -4.77083e-015 -177.218 69.3488 172.707 -2.80921e-006 7.10889e-006 -3 8.03003 -4.95096 0.697573 -63.6312 -10.2168 6.3341 -107.267 26.004 9.93107 3.67558e-006 1.44309e-005 1.29135e-005 3.63842 -0.035342 1.99299 -2.99074e-006 -1.06443e-005 3.01161 -8.03009 -4.95139 -0.697598 -178.115 5.81977 -1.08296 180 7.01554e-015 178.952 -178.537 11.5352 179.317 4.06695e-007 2.86343e-007 0.330378 -20.4463 70.0141 21.3677 8.13649 25.2326 -3.48772 179.27 20.6097 4.31223 4.54188e-006 -4.6773e-006 -0.842975 1.09327 -17.5121 0.819535 6.74829e-008 -6.68015e-007 -0.212024 18.874 68.2435 -19.769 -8.13648 25.2326 3.48773 
53.8916 83.5975 6.95801 -5.50235 -0.781358 97.3905 -1.07683 -3.38961 -0.295283 -2.16368 -2.77238 -0.517813 -2.15647 -1.12801 -0.482463 -19.3237 -35.9604 -17.4824 10.3021 21.555 -16.4121 72.0599 -6.26355 -4.46511 39.3884 48.3586 49.6171 3.18055e-015 6.36111e-015 9.54166e-015 -176.853 70.749 172.328 -2.80921e-006 7.10889e-006 -3 8.03003 -4.95096 0.697573 -63.9821 -10.4496 6.46977 -106.959 26.4922 9.80014 3.67558e-006 1.44309e-005 1.29135e-005 3.63799 -0.0353421 1.99299 -2.99074e-006 -1.06443e-005 3.01161 -8.03009 -4.95139 -0.697598 -178.051 5.88623 -1.13923 180 7.01554e-015 178.954 -178.514 11.521 179.314 4.06695e-007 2.86343e-007 0.332811 -20.4737 70.042 21.397 8.13649 25.2326 -3.48772 179.303 20.6903 4.29779 4.54188e-006 -4.6773e-006 -0.841762 1.09285 -17.493 0.818494 6.74829e-008 -6.68015e-007 -0.210889 18.8593 68.2264 -19.7531 -8.13648 25.2326 3.48773 
53.8709 83.5939 6.98271 -5.57731 -0.816873 97.4543 -1.08389 -3.38193 -0.295231 -2.17764 -2.75701 -0.516567 -2.17045 -1.11265 -0.480846 -19.9697 -36.2581 -17.8523 10.823 21.8116 -16.7153 71.6164 -6.14411 -4.38965 39.0445 48.7633 49.8128 3.18055e-015 1.27222e-014 1.11319e-014 -176.419 72.1822 171.88 -2.80921e-006 7.10889e-006 -3 8.03003 -4.95096 0.697573 -64.338 -10.6801 6.60339 -106.644 26.9812 9.66256 3.67558e-006 1.44309e-005 1.29135e-005 3.63774 -0.0353421 1.99299 -2.99074e-006 -1.06443e-005 3.01161 -8.03009 -4.95139 -0.697598 -177.988 5.95277 -1.19435 180 7.01554e-015 178.955 -178.492 11.507 179.312 4.06695e-007 2.86343e-007 0.335322 -20.5018 70.0707 21.4271 8.13649 25.2326 -3.48772 179.336 20.7702 4.28308 4.54188e-006 -4.6773e-006 -0.840549 1.09167 -17.4737 0.817281 6.74829e-008 -6.68016e-007 -0.209728 18.8443 68.2092 -19.7369 -8.13648 25.2326 3.48773 
